<svg xmlns="http://www.w3.org/2000/svg" aria-hidden="true" style="position:absolute;width:0;height:0;overflow:hidden">
  <defs>
    <symbol id="icon-f-facebook" viewBox="0 0 8 21">
      <path fill="white" d="M7.07999 1.06023C7.28999 1.06023 7.5 1.06023 7.92 1.06023V4.21023C7.71 4.21023 7.29 4.21023 6.87 4.21023C6.45 4.21023 6.03 4.21023 5.82 4.42023C5.61 4.63023 5.60999 4.84023 5.60999 5.33023C5.60999 5.75023 5.60999 6.03023 5.60999 6.45023H7.92V9.11023H5.60999V20.6602H2.04V9.04023H0.149994V6.38023H2.04V5.47023C2.04 3.93023 2.25 2.81023 2.67 2.32023C3.3 1.41023 4.55999 0.990234 6.44999 0.990234C6.65999 1.06023 6.86999 1.06023 7.07999 1.06023Z" 
			 style="fill:while"/>
    </symbol>
		<symbol id="icon-f-insta" viewBox="0 0 28 28">
			<path d="M25.1278 9.41127C25.1142 8.47121 24.94 7.5386 24.6067 6.65939C24.0233 5.15803 22.8354 3.97084 21.3315 3.38967C20.462 3.06307 19.5428 2.88797 18.6123 2.86811C17.4157 2.81471 17.0363 2.7998 13.9987 2.7998C10.9612 2.7998 10.5718 2.7998 9.38391 2.86811C8.45472 2.88797 7.53548 3.06307 6.666 3.38967C5.16214 3.97084 3.97298 5.15803 3.39084 6.65939C3.06369 7.52743 2.88706 8.44513 2.86965 9.37277C2.81616 10.5687 2.79999 10.9474 2.79999 13.9799C2.79999 17.0125 2.79999 17.3999 2.86965 18.5871C2.8883 19.516 3.06369 20.4325 3.39084 21.303C3.97422 22.8031 5.16214 23.9903 6.66725 24.5714C7.533 24.9092 8.45223 25.1005 9.38515 25.1303C10.583 25.1837 10.9624 25.1998 14 25.1998C17.0376 25.1998 17.4269 25.1998 18.6148 25.1303C19.544 25.1116 20.4632 24.9365 21.334 24.6099C22.8378 24.0275 24.0258 22.8403 24.6091 21.3402C24.9363 20.4709 25.1117 19.5545 25.1303 18.6244C25.1838 17.4297 25.2 17.051 25.2 14.0172C25.1975 10.9847 25.1975 10.5997 25.1278 9.41127ZM13.9913 19.7147C10.8144 19.7147 8.24077 17.1453 8.24077 13.9737C8.24077 10.8021 10.8144 8.23278 13.9913 8.23278C17.1657 8.23278 19.7418 10.8021 19.7418 13.9737C19.7418 17.1453 17.1657 19.7147 13.9913 19.7147ZM19.9707 9.35911C19.2281 9.35911 18.6298 8.76056 18.6298 8.02043C18.6298 7.2803 19.2281 6.68174 19.9707 6.68174C20.7108 6.68174 21.3103 7.2803 21.3103 8.02043C21.3103 8.76056 20.7108 9.35911 19.9707 9.35911Z" fill="white"/>
			<path d="M13.9931 17.4792C15.928 17.4792 17.4966 15.9106 17.4966 13.9757C17.4966 12.0407 15.928 10.4722 13.9931 10.4722C12.0581 10.4722 10.4896 12.0407 10.4896 13.9757C10.4896 15.9106 12.0581 17.4792 13.9931 17.4792Z" fill="white"/>
		</symbol>
	  <symbol id="icon-f-youtube" viewBox="0 0 26 18">
			<path fill-rule="evenodd" clip-rule="evenodd" d="M20.21 0.249863C19.02 0.179863 16.57 0.109863 12.86 0.109863H12.37C8.80004 0.109863 6.42007 0.179863 5.23007 0.319863C3.62007 0.459863 2.50004 0.879863 1.87004 1.43986C1.31004 1.92986 0.890055 2.83986 0.750055 4.02986C0.680055 4.79986 0.610046 6.40986 0.610046 8.85986V9.20986C0.610046 11.5199 0.680038 13.1299 0.820038 13.8999C1.03004 15.0199 1.38007 15.8599 2.08007 16.3499C2.78007 16.9099 3.97005 17.2599 5.65005 17.3999C6.84005 17.4699 9.29005 17.5399 13.0001 17.5399H13.4901C17.0601 17.5399 19.4401 17.4699 20.6301 17.3299C22.2401 17.1899 23.3601 16.7699 23.9901 16.2099C24.5501 15.7199 24.97 14.8099 25.11 13.6199C25.18 12.8499 25.2501 11.2399 25.2501 8.78986V8.43986C25.2501 6.12986 25.1801 4.51986 25.0401 3.74986C24.8301 2.62986 24.4801 1.78986 23.7801 1.29986C23.0801 0.739863 21.89 0.389863 20.21 0.249863ZM17.4801 8.85986L9.78007 13.4799V4.23986L17.4801 8.85986Z" fill="white"/>
		</symbol>
	</defs>
</svg>


<!-- <svg width="28" height="28" viewBox="0 0 28 28" fill="none" xmlns="http://www.w3.org/2000/svg">
<g opacity="0.8">

</g>
</svg> -->

<svg width="26" height="18" viewBox="0 0 26 18" fill="none" xmlns="http://www.w3.org/2000/svg">

</svg>

