<svg width="8" height="21" viewBox="0 0 8 21" fill="none" xmlns="http://www.w3.org/2000/svg">
<path d="M7.07999 1.06023C7.28999 1.06023 7.5 1.06023 7.92 1.06023V4.21023C7.71 4.21023 7.29 4.21023 6.87 4.21023C6.45 4.21023 6.03 4.21023 5.82 4.42023C5.61 4.63023 5.60999 4.84023 5.60999 5.33023C5.60999 5.75023 5.60999 6.03023 5.60999 6.45023H7.92V9.11023H5.60999V20.6602H2.04V9.04023H0.149994V6.38023H2.04V5.47023C2.04 3.93023 2.25 2.81023 2.67 2.32023C3.3 1.41023 4.55999 0.990234 6.44999 0.990234C6.65999 1.06023 6.86999 1.06023 7.07999 1.06023Z" fill="white"/>
</svg>
